<svg id="svg" version="1.1" xmlns="http://www.w3.org/2000/svg" xmlns:xlink="http://www.w3.org/1999/xlink" width="400" height="400" viewBox="0, 0, 400,400"><g id="svgg"><path id="path0" d="M266.712 154.812 C 259.610 156.009,254.325 161.957,252.975 170.276 C 251.840 177.271,252.048 177.522,258.468 176.900 C 267.861 175.990,272.214 171.074,276.030 157.069 C 276.752 154.420,273.588 153.654,266.712 154.812 M235.600 160.119 C 227.260 162.458,225.489 165.009,230.666 167.228 C 233.298 168.357,233.200 167.400,233.200 191.948 C 233.200 216.445,233.259 215.841,230.716 217.461 C 227.790 219.325,227.219 220.819,228.820 222.420 C 229.905 223.505,248.123 223.486,248.809 222.400 C 249.856 220.741,249.281 219.242,247.050 217.815 C 244.038 215.888,244.224 217.769,244.002 187.000 L 243.800 159.000 242.000 158.915 C 240.944 158.864,238.298 159.363,235.600 160.119 M128.600 163.867 C 125.603 164.688,126.149 167.840,129.592 169.596 C 131.704 170.673,131.600 169.426,131.600 193.647 L 131.600 215.629 130.700 216.451 C 130.205 216.903,129.170 217.668,128.400 218.149 C 126.589 219.283,126.214 221.544,127.667 222.562 C 129.636 223.941,159.799 223.162,165.554 221.583 C 178.407 218.057,184.493 205.780,182.402 187.600 C 180.845 174.058,174.835 167.127,162.400 164.530 C 159.387 163.900,130.541 163.335,128.600 163.867 M161.076 170.816 C 168.142 173.216,170.991 179.671,170.956 193.200 C 170.907 211.838,165.997 217.200,148.974 217.200 L 143.200 217.200 143.200 193.820 C 143.200 171.988,143.246 170.411,143.900 169.998 C 145.168 169.198,158.130 169.816,161.076 170.816 M202.172 180.202 C 193.030 181.802,188.810 186.502,187.177 196.903 C 185.117 210.017,191.024 220.794,201.488 223.011 C 212.986 225.448,225.773 220.724,224.238 214.607 C 223.570 211.946,221.227 212.146,218.040 215.136 C 210.309 222.391,199.915 217.876,198.160 206.500 L 197.898 204.800 210.723 204.800 C 218.571 204.800,223.969 204.640,224.634 204.387 L 225.720 203.974 225.484 198.887 C 224.821 184.596,216.262 177.735,202.172 180.202 M259.768 180.999 C 250.021 183.579,248.278 185.769,253.673 188.660 L 255.800 189.800 255.905 202.867 L 256.011 215.933 255.045 216.667 C 254.514 217.070,253.528 217.703,252.854 218.073 C 251.349 218.900,250.846 220.533,251.654 221.972 L 252.230 223.000 261.069 223.108 C 270.597 223.223,271.752 223.044,272.168 221.387 C 272.522 219.974,271.620 218.631,269.638 217.620 C 267.226 216.389,267.200 216.180,267.200 197.769 C 267.200 177.631,267.756 178.885,259.768 180.999 M210.772 186.186 C 213.422 187.556,215.503 192.033,215.706 196.800 L 215.800 199.000 206.848 199.108 L 197.895 199.216 198.173 196.394 C 198.708 190.968,200.202 187.718,202.794 186.341 C 204.534 185.416,209.112 185.327,210.772 186.186 " stroke="none" fill="#70b22d" fill-rule="evenodd"></path><path id="path1" d="M187.200 54.299 C 185.551 54.376,184.030 54.610,183.820 54.820 C 183.611 55.029,182.328 55.200,180.969 55.200 C 178.697 55.200,177.168 55.834,177.834 56.500 C 178.416 57.083,176.338 57.178,175.469 56.608 C 174.468 55.952,171.422 56.118,170.968 56.853 C 170.849 57.044,170.058 57.200,169.209 57.200 C 167.278 57.200,166.400 57.526,166.400 58.243 C 166.400 58.917,166.310 58.924,165.035 58.343 C 164.227 57.975,163.839 58.014,163.030 58.543 C 162.479 58.904,161.645 59.200,161.177 59.200 C 160.671 59.200,160.243 59.514,160.123 59.973 C 159.953 60.623,159.773 60.679,158.997 60.326 C 158.292 60.005,157.765 60.058,156.775 60.552 C 156.061 60.909,154.975 61.200,154.362 61.200 C 153.749 61.200,153.136 61.380,153.000 61.600 C 152.864 61.820,152.348 62.000,151.853 62.000 C 151.358 62.000,150.604 62.264,150.176 62.587 C 149.749 62.910,149.133 63.180,148.806 63.187 C 148.479 63.194,147.309 63.635,146.206 64.167 C 145.103 64.698,143.440 65.463,142.510 65.867 C 141.581 66.270,140.816 66.828,140.810 67.108 C 140.803 67.449,140.471 67.533,139.796 67.363 C 139.065 67.180,138.419 67.396,137.423 68.156 C 136.670 68.730,135.768 69.200,135.419 69.200 C 135.070 69.200,134.071 69.650,133.200 70.200 C 132.329 70.750,131.424 71.200,131.189 71.200 C 130.570 71.200,126.258 74.003,125.880 74.651 C 125.704 74.953,125.305 75.200,124.992 75.200 C 124.048 75.200,120.065 77.602,118.246 79.269 C 117.831 79.649,116.886 80.248,116.146 80.599 C 115.406 80.950,114.800 81.499,114.800 81.819 C 114.800 82.138,114.459 82.400,114.043 82.400 C 113.627 82.400,112.386 83.210,111.284 84.200 C 110.183 85.190,109.149 86.000,108.986 86.000 C 108.671 86.000,103.847 90.097,102.753 91.292 C 102.397 91.682,101.933 92.000,101.721 92.000 C 101.509 92.000,101.094 92.450,100.800 93.000 C 100.506 93.550,100.056 94.000,99.800 94.000 C 99.544 94.000,99.094 94.450,98.800 95.000 C 98.506 95.550,98.124 96.000,97.951 96.000 C 97.613 96.000,91.200 102.280,91.200 102.611 C 91.200 102.721,90.586 103.483,89.836 104.305 C 86.984 107.429,84.800 110.038,84.800 110.318 C 84.800 110.478,84.163 111.327,83.385 112.204 C 82.607 113.082,81.702 114.295,81.375 114.900 C 81.047 115.505,80.648 116.000,80.487 116.000 C 80.327 116.000,79.960 116.532,79.672 117.183 C 79.384 117.834,78.713 118.779,78.181 119.283 C 77.649 119.787,77.211 120.484,77.207 120.830 C 77.203 121.177,76.750 121.883,76.200 122.400 C 75.650 122.917,75.200 123.668,75.200 124.070 C 75.200 124.471,75.023 124.800,74.808 124.800 C 74.592 124.800,74.306 125.237,74.172 125.771 C 74.038 126.304,73.584 127.052,73.164 127.433 C 72.744 127.813,72.400 128.437,72.400 128.819 C 72.400 129.202,72.130 129.618,71.800 129.745 C 71.470 129.871,71.200 130.341,71.200 130.787 C 71.200 131.234,71.055 131.600,70.877 131.600 C 70.575 131.600,69.200 134.340,69.200 134.942 C 69.200 135.093,68.750 135.929,68.200 136.800 C 67.650 137.671,67.200 138.581,67.200 138.821 C 67.200 139.061,66.938 139.519,66.617 139.840 C 66.296 140.161,66.125 140.659,66.235 140.947 C 66.346 141.236,66.158 141.703,65.818 141.985 C 65.478 142.267,65.194 142.791,65.187 143.149 C 65.180 143.507,64.929 144.123,64.630 144.519 C 64.330 144.914,64.177 145.589,64.289 146.019 C 64.401 146.448,64.307 146.800,64.079 146.800 C 63.304 146.800,61.956 149.486,62.215 150.517 C 62.391 151.219,62.269 151.565,61.779 151.753 C 61.251 151.955,61.148 152.327,61.324 153.407 C 61.490 154.430,61.404 154.800,61.002 154.800 C 60.356 154.800,59.885 156.035,60.209 156.880 C 60.334 157.205,60.158 157.703,59.818 157.985 C 59.455 158.286,59.200 159.138,59.200 160.049 C 59.200 160.902,59.034 161.600,58.832 161.600 C 58.629 161.600,58.345 162.138,58.201 162.795 C 58.057 163.453,57.772 164.094,57.569 164.219 C 57.366 164.345,57.200 165.121,57.200 165.944 C 57.200 166.767,57.003 167.637,56.762 167.878 C 56.521 168.119,56.297 169.280,56.263 170.458 C 56.230 171.636,56.041 172.717,55.844 172.859 C 55.646 173.002,55.396 174.532,55.288 176.259 C 55.180 177.987,54.898 179.524,54.662 179.675 C 54.409 179.838,54.226 181.480,54.216 183.675 C 54.207 185.724,54.069 187.600,53.911 187.844 C 53.011 189.227,53.135 213.200,54.042 213.200 C 54.239 213.200,54.424 212.165,54.452 210.900 L 54.505 208.600 54.861 211.720 C 55.167 214.391,55.124 214.933,54.563 215.494 C 53.875 216.182,54.016 220.032,54.762 220.974 C 54.948 221.208,55.184 222.765,55.286 224.434 C 55.388 226.103,55.625 227.717,55.813 228.021 C 56.000 228.324,56.188 229.382,56.230 230.371 C 56.271 231.359,56.507 232.236,56.753 232.318 C 56.999 232.400,57.200 233.273,57.200 234.258 C 57.200 235.305,57.599 236.912,58.159 238.125 C 58.686 239.266,59.214 240.740,59.332 241.400 C 59.779 243.897,60.547 246.400,60.867 246.400 C 61.050 246.400,61.200 246.929,61.200 247.576 C 61.200 248.223,61.380 248.864,61.600 249.000 C 61.820 249.136,62.000 249.652,62.000 250.147 C 62.000 250.642,62.264 251.396,62.587 251.824 C 62.910 252.251,63.180 252.921,63.187 253.313 C 63.194 253.704,63.480 254.133,63.823 254.264 C 64.166 254.396,64.353 254.745,64.240 255.040 C 64.127 255.335,64.296 255.839,64.617 256.160 C 64.938 256.481,65.200 257.105,65.200 257.548 C 65.200 257.991,65.366 258.455,65.569 258.581 C 65.772 258.706,66.057 259.347,66.201 260.005 C 66.345 260.662,66.629 261.200,66.832 261.200 C 67.034 261.200,67.200 261.455,67.200 261.768 C 67.200 262.435,68.465 264.940,68.900 265.133 C 69.065 265.207,69.200 265.590,69.200 265.984 C 69.200 266.379,69.470 266.926,69.800 267.200 C 70.130 267.474,70.400 268.036,70.400 268.449 C 70.400 268.862,70.580 269.200,70.800 269.200 C 71.020 269.200,71.200 269.474,71.200 269.808 C 71.200 270.358,72.977 273.514,73.560 274.000 C 73.892 274.276,74.605 275.490,75.616 277.500 C 76.086 278.435,76.635 279.200,76.836 279.200 C 77.036 279.200,77.201 279.515,77.202 279.900 C 77.203 280.285,77.833 281.285,78.602 282.122 C 79.371 282.960,80.000 283.775,80.000 283.935 C 80.000 284.245,81.095 285.711,82.900 287.820 C 83.505 288.527,84.000 289.218,84.000 289.356 C 84.000 289.584,85.438 291.325,86.700 292.627 C 86.975 292.911,87.200 293.259,87.200 293.400 C 87.200 293.542,88.055 294.560,89.100 295.662 C 90.145 296.764,91.144 297.921,91.320 298.233 C 91.496 298.545,91.901 298.800,92.220 298.800 C 92.539 298.800,92.800 298.954,92.800 299.142 C 92.800 299.750,97.652 304.800,98.235 304.800 C 98.546 304.800,98.800 305.033,98.800 305.319 C 98.800 305.828,101.598 308.800,102.078 308.800 C 102.212 308.800,103.194 309.697,104.261 310.794 C 105.327 311.890,106.348 312.790,106.529 312.794 C 106.709 312.797,107.089 313.025,107.373 313.300 C 108.688 314.575,110.350 315.930,112.000 317.071 C 112.990 317.755,114.233 318.694,114.761 319.158 C 115.290 319.621,115.965 320.000,116.261 320.000 C 116.558 320.000,116.800 320.157,116.800 320.350 C 116.800 320.644,118.562 321.845,123.800 325.123 C 124.240 325.398,124.915 325.729,125.300 325.858 C 125.685 325.988,126.000 326.252,126.000 326.447 C 126.000 326.641,126.270 326.800,126.600 326.800 C 126.930 326.800,127.201 326.935,127.203 327.100 C 127.206 327.502,129.519 328.800,130.232 328.800 C 130.545 328.800,130.800 328.945,130.800 329.123 C 130.800 329.425,133.540 330.800,134.142 330.800 C 134.293 330.800,135.129 331.250,136.000 331.800 C 136.871 332.350,137.858 332.800,138.192 332.800 C 138.526 332.800,138.800 332.980,138.800 333.200 C 138.800 333.420,139.030 333.600,139.311 333.600 C 139.592 333.600,140.823 334.119,142.046 334.754 C 143.269 335.388,145.005 336.032,145.904 336.184 C 146.802 336.336,147.636 336.716,147.756 337.030 C 147.876 337.343,148.499 337.600,149.138 337.600 C 149.778 337.600,150.526 337.870,150.800 338.200 C 151.074 338.530,151.816 338.800,152.449 338.800 C 153.082 338.800,153.600 338.950,153.600 339.133 C 153.600 339.502,156.546 340.353,158.974 340.684 C 159.839 340.802,161.314 341.326,162.251 341.849 C 163.349 342.462,164.602 342.800,165.777 342.800 C 166.780 342.800,167.600 342.980,167.600 343.200 C 167.600 343.747,171.332 343.708,171.885 343.155 C 172.413 342.627,173.328 343.070,172.955 343.672 C 172.516 344.382,173.696 344.787,176.220 344.794 C 177.551 344.797,178.850 345.010,179.106 345.266 C 179.716 345.876,186.698 345.862,187.311 345.249 C 188.160 344.400,192.289 344.808,191.746 345.687 C 191.113 346.712,202.862 347.343,207.700 346.543 C 209.165 346.301,209.816 345.600,208.576 345.600 C 208.233 345.600,208.064 345.420,208.200 345.200 C 208.548 344.637,211.341 344.701,211.926 345.286 C 212.637 345.997,219.604 345.873,220.172 345.139 C 220.475 344.747,221.276 344.627,222.913 344.730 C 225.172 344.872,226.656 344.338,226.173 343.556 C 226.053 343.361,226.406 343.374,226.959 343.584 C 228.068 344.006,231.900 343.685,232.235 343.143 C 232.352 342.954,233.135 342.800,233.975 342.800 C 234.844 342.800,235.716 342.542,236.000 342.200 C 236.274 341.870,236.926 341.600,237.449 341.600 C 237.972 341.600,238.400 341.420,238.400 341.200 C 238.400 340.980,239.109 340.800,239.976 340.800 C 240.843 340.800,241.649 340.644,241.768 340.453 C 241.886 340.261,242.706 339.989,243.591 339.848 C 244.597 339.687,245.200 339.377,245.200 339.020 C 245.200 338.595,245.547 338.507,246.566 338.672 C 247.478 338.820,248.238 338.679,248.855 338.247 C 249.362 337.891,250.126 337.600,250.551 337.600 C 250.977 337.600,251.904 337.158,252.613 336.617 C 253.321 336.077,254.001 335.734,254.123 335.856 C 254.245 335.978,254.852 335.812,255.472 335.488 C 256.958 334.710,258.392 334.109,259.500 333.798 C 259.995 333.660,260.400 333.378,260.400 333.173 C 260.400 332.968,260.674 332.800,261.008 332.800 C 261.342 332.800,262.329 332.350,263.200 331.800 C 264.071 331.250,265.075 330.800,265.429 330.800 C 265.784 330.800,266.170 330.436,266.286 329.992 C 266.444 329.390,266.628 329.291,267.006 329.605 C 267.373 329.909,267.687 329.856,268.129 329.414 C 268.467 329.076,269.031 328.800,269.384 328.800 C 269.737 328.800,270.129 328.530,270.255 328.200 C 270.382 327.870,270.792 327.600,271.167 327.600 C 271.542 327.600,272.212 327.262,272.655 326.849 C 273.099 326.436,273.853 325.974,274.331 325.822 C 274.809 325.670,275.200 325.378,275.200 325.173 C 275.200 324.968,275.541 324.800,275.958 324.800 C 276.375 324.800,277.140 324.353,277.658 323.807 C 278.176 323.261,278.816 322.811,279.079 322.807 C 279.343 322.803,280.003 322.389,280.545 321.886 C 281.087 321.383,282.036 320.708,282.653 320.386 C 283.271 320.064,284.051 319.570,284.388 319.290 C 287.234 316.918,290.024 314.800,290.302 314.800 C 290.487 314.800,291.368 314.125,292.260 313.300 C 295.779 310.044,297.198 308.800,297.394 308.800 C 297.801 308.800,309.054 297.223,311.152 294.644 C 312.336 293.190,313.461 292.000,313.652 292.000 C 313.844 292.000,314.000 291.764,314.000 291.476 C 314.000 291.188,314.818 289.994,315.817 288.824 C 317.937 286.340,320.000 283.414,320.000 282.890 C 320.000 282.689,320.379 282.181,320.843 281.762 C 321.306 281.343,322.030 280.325,322.451 279.500 C 322.872 278.675,323.393 278.000,323.608 278.000 C 323.824 278.000,324.000 277.726,324.000 277.391 C 324.000 276.880,325.730 273.854,326.396 273.200 C 327.061 272.548,331.245 264.312,331.024 264.091 C 330.920 263.987,331.244 263.338,331.745 262.651 C 332.245 261.963,332.976 260.590,333.369 259.600 C 333.761 258.610,334.244 257.487,334.441 257.105 C 334.638 256.723,334.800 256.225,334.800 255.997 C 334.800 255.770,335.250 254.871,335.800 254.000 C 336.350 253.129,336.806 252.007,336.813 251.508 C 336.820 251.009,337.090 250.251,337.413 249.824 C 337.736 249.396,338.000 248.642,338.000 248.147 C 338.000 247.652,338.180 247.136,338.400 247.000 C 338.620 246.864,338.800 246.217,338.800 245.562 C 338.800 244.908,339.090 243.929,339.444 243.389 C 339.832 242.797,339.992 242.024,339.847 241.445 C 339.683 240.793,339.798 240.410,340.203 240.254 C 340.531 240.128,340.800 239.563,340.800 238.998 C 340.800 238.434,341.096 237.521,341.457 236.970 C 341.995 236.148,342.028 235.780,341.642 234.932 C 341.382 234.363,341.267 233.800,341.385 233.682 C 341.503 233.563,341.606 233.722,341.613 234.033 C 341.648 235.615,342.800 232.816,342.800 231.147 C 342.800 230.102,342.956 229.151,343.146 229.033 C 343.877 228.581,343.982 225.894,343.313 224.761 C 342.795 223.883,342.750 223.454,343.101 222.724 C 343.449 222.002,343.552 221.953,343.573 222.500 C 343.685 225.400,344.800 221.883,344.800 218.630 C 344.800 217.492,345.009 216.351,345.265 216.095 C 346.076 215.284,346.225 207.403,345.452 206.223 C 344.622 204.957,344.501 196.859,345.300 196.060 C 345.995 195.364,345.992 185.832,345.296 185.136 C 344.994 184.834,344.800 183.526,344.800 181.796 C 344.800 179.434,343.666 175.734,343.613 177.924 C 343.606 178.212,343.420 178.336,343.200 178.200 C 342.589 177.822,342.724 176.419,343.440 175.703 C 344.130 175.013,343.932 171.929,343.181 171.667 C 342.972 171.593,342.797 170.693,342.794 169.667 C 342.787 167.643,342.334 166.547,341.672 166.955 C 340.958 167.397,340.715 166.428,341.374 165.768 C 342.166 164.977,342.178 164.043,341.400 163.745 C 341.066 163.617,340.800 163.022,340.800 162.406 C 340.800 161.288,339.950 160.184,339.463 160.670 C 339.088 161.045,339.137 160.618,339.611 159.372 C 339.926 158.543,339.879 158.075,339.411 157.360 C 339.075 156.848,338.800 155.876,338.800 155.202 C 338.800 154.462,338.554 153.880,338.179 153.737 C 337.744 153.570,337.628 153.184,337.791 152.442 C 337.933 151.797,337.790 151.075,337.424 150.592 C 337.095 150.156,336.820 149.481,336.813 149.092 C 336.806 148.703,336.350 147.671,335.800 146.800 C 335.250 145.929,334.800 144.937,334.800 144.595 C 334.800 144.254,334.520 143.867,334.177 143.736 C 333.832 143.604,333.654 143.236,333.778 142.912 C 333.902 142.591,333.742 141.849,333.424 141.264 C 333.105 140.679,332.078 138.580,331.142 136.600 C 330.205 134.620,329.295 132.940,329.119 132.867 C 328.944 132.793,328.800 132.506,328.800 132.228 C 328.800 131.462,327.546 129.078,326.787 128.400 C 326.417 128.070,325.620 126.752,325.015 125.471 C 324.410 124.190,323.664 123.046,323.357 122.928 C 323.051 122.811,322.800 122.419,322.800 122.057 C 322.799 121.696,322.341 120.867,321.781 120.216 C 321.221 119.565,320.238 118.125,319.597 117.016 C 318.956 115.907,317.794 114.292,317.016 113.427 C 316.237 112.562,315.600 111.726,315.600 111.569 C 315.600 111.412,314.798 110.435,313.819 109.398 C 312.839 108.361,311.984 107.374,311.919 107.205 C 311.393 105.845,298.969 93.137,295.171 90.074 C 293.757 88.934,291.970 87.404,291.200 86.674 C 290.430 85.944,289.260 85.001,288.600 84.579 C 287.940 84.156,287.220 83.606,287.000 83.356 C 286.780 83.106,285.340 82.075,283.800 81.066 C 282.260 80.056,280.463 78.773,279.806 78.215 C 279.149 77.657,278.394 77.200,278.127 77.200 C 277.860 77.200,277.165 76.758,276.582 76.218 C 275.999 75.678,274.879 75.024,274.092 74.764 C 273.306 74.505,272.288 73.897,271.831 73.415 C 270.927 72.459,268.600 71.200,267.739 71.200 C 267.442 71.200,267.200 71.023,267.200 70.808 C 267.200 70.592,266.705 70.292,266.100 70.141 C 265.495 69.991,264.190 69.418,263.200 68.870 C 262.210 68.321,261.130 67.746,260.800 67.593 C 260.470 67.440,259.631 67.018,258.936 66.656 C 258.241 66.294,257.409 66.098,257.088 66.222 C 256.764 66.346,256.396 66.168,256.264 65.823 C 256.133 65.480,255.670 65.200,255.236 65.200 C 254.802 65.200,254.336 65.020,254.200 64.800 C 254.064 64.580,253.623 64.400,253.219 64.400 C 252.816 64.400,252.382 64.130,252.255 63.800 C 252.129 63.470,251.580 63.200,251.036 63.200 C 250.492 63.200,249.936 63.020,249.800 62.800 C 249.664 62.580,249.148 62.400,248.653 62.400 C 248.158 62.400,247.404 62.136,246.976 61.813 C 246.549 61.490,245.609 61.220,244.886 61.213 C 244.163 61.206,243.129 60.910,242.589 60.556 C 241.999 60.169,241.223 60.008,240.649 60.152 C 240.027 60.308,239.508 60.171,239.168 59.762 C 238.825 59.348,238.273 59.205,237.564 59.347 C 236.723 59.515,236.438 59.390,236.279 58.782 C 236.033 57.840,235.089 57.768,234.232 58.626 C 233.572 59.285,232.603 59.042,233.045 58.328 C 233.456 57.663,232.354 57.213,230.300 57.206 C 229.255 57.203,228.400 57.044,228.400 56.853 C 228.400 56.194,225.052 56.020,223.852 56.616 C 223.074 57.003,222.494 57.064,222.052 56.805 C 221.508 56.487,221.499 56.420,222.000 56.399 C 224.224 56.307,220.667 55.200,218.147 55.200 C 216.552 55.200,215.151 55.045,215.034 54.855 C 214.586 54.129,206.486 53.898,205.134 54.573 C 203.403 55.436,194.960 55.447,193.824 54.587 C 193.396 54.264,192.406 54.036,191.624 54.079 C 190.841 54.123,188.850 54.222,187.200 54.299 M275.975 154.969 C 276.493 155.594,276.359 156.262,274.619 161.717 C 271.407 171.786,266.829 176.090,258.468 176.900 C 252.048 177.522,251.840 177.271,252.975 170.276 C 254.325 161.957,259.610 156.009,266.712 154.812 C 270.090 154.243,275.447 154.334,275.975 154.969 M244.002 187.000 C 244.224 217.769,244.038 215.888,247.050 217.815 C 249.281 219.242,249.856 220.741,248.809 222.400 C 248.123 223.486,229.905 223.505,228.820 222.420 C 227.219 220.819,227.790 219.325,230.716 217.461 C 233.259 215.841,233.200 216.445,233.200 191.948 C 233.200 167.400,233.298 168.357,230.666 167.228 C 227.520 165.880,227.057 163.705,229.600 162.224 C 231.691 161.007,239.903 158.815,242.000 158.915 L 243.800 159.000 244.002 187.000 M162.400 164.530 C 174.835 167.127,180.845 174.058,182.402 187.600 C 184.493 205.780,178.407 218.057,165.554 221.583 C 159.799 223.162,129.636 223.941,127.667 222.562 C 126.214 221.544,126.589 219.283,128.400 218.149 C 129.170 217.668,130.205 216.903,130.700 216.451 L 131.600 215.629 131.600 193.647 C 131.600 169.426,131.704 170.673,129.592 169.596 C 126.149 167.840,125.603 164.688,128.600 163.867 C 130.541 163.335,159.387 163.900,162.400 164.530 M143.900 169.998 C 143.246 170.411,143.200 171.988,143.200 193.820 L 143.200 217.200 148.974 217.200 C 165.997 217.200,170.907 211.838,170.956 193.200 C 170.991 179.671,168.142 173.216,161.076 170.816 C 158.130 169.816,145.168 169.198,143.900 169.998 M213.000 180.652 C 221.335 182.789,224.984 188.119,225.484 198.887 L 225.720 203.974 224.634 204.387 C 223.969 204.640,218.571 204.800,210.723 204.800 L 197.898 204.800 198.160 206.500 C 199.915 217.876,210.309 222.391,218.040 215.136 C 221.227 212.146,223.570 211.946,224.238 214.607 C 225.773 220.724,212.986 225.448,201.488 223.011 C 189.533 220.478,183.884 207.109,188.259 191.705 C 190.886 182.455,201.514 177.707,213.000 180.652 M266.571 180.629 C 267.123 181.180,267.200 183.292,267.200 197.769 C 267.200 216.180,267.226 216.389,269.638 217.620 C 271.620 218.631,272.522 219.974,272.168 221.387 C 271.752 223.044,270.597 223.223,261.069 223.108 L 252.230 223.000 251.654 221.972 C 250.846 220.533,251.349 218.900,252.854 218.073 C 253.528 217.703,254.514 217.070,255.045 216.667 L 256.011 215.933 255.905 202.867 L 255.800 189.800 253.673 188.660 C 249.816 186.593,249.883 184.300,253.842 182.819 C 260.162 180.454,265.482 179.539,266.571 180.629 M202.794 186.341 C 200.202 187.718,198.708 190.968,198.173 196.394 L 197.895 199.216 206.848 199.108 L 215.800 199.000 215.706 196.800 C 215.329 187.959,209.157 182.959,202.794 186.341 M54.948 189.900 C 54.600 192.993,54.400 193.053,54.400 190.067 C 54.400 188.675,54.576 187.600,54.803 187.600 C 55.058 187.600,55.111 188.449,54.948 189.900 " stroke="none" fill="#fbfbfb" fill-rule="evenodd"></path></g></svg>