<svg id="svg" version="1.1" xmlns="http://www.w3.org/2000/svg" xmlns:xlink="http://www.w3.org/1999/xlink" width="400" height="400" viewBox="0, 0, 400,400"><g id="svgg"><path id="path0" d="M187.800 74.830 C 182.454 75.153,178.504 75.699,175.000 76.600 C 173.900 76.882,172.196 77.231,171.213 77.375 C 170.231 77.519,168.161 78.048,166.613 78.551 C 165.066 79.053,162.450 79.878,160.800 80.384 C 159.150 80.889,157.260 81.530,156.600 81.807 C 155.940 82.084,154.950 82.440,154.400 82.597 C 153.850 82.755,153.040 83.107,152.600 83.380 C 152.160 83.653,150.773 84.259,149.519 84.726 C 148.264 85.193,145.654 86.390,143.719 87.387 C 141.783 88.383,140.053 89.199,139.873 89.199 C 139.694 89.200,138.958 89.649,138.238 90.198 C 137.518 90.747,136.360 91.395,135.664 91.637 C 134.969 91.880,134.400 92.241,134.400 92.439 C 134.400 92.638,134.130 92.800,133.800 92.800 C 133.470 92.800,133.200 92.953,133.200 93.140 C 133.200 93.487,129.603 95.928,128.263 96.492 C 127.857 96.662,126.578 97.611,125.420 98.601 C 124.261 99.590,123.153 100.402,122.957 100.405 C 122.761 100.408,121.827 101.128,120.883 102.005 C 119.938 102.882,118.989 103.600,118.773 103.600 C 118.177 103.600,103.601 118.267,103.596 118.872 C 103.593 119.162,102.963 120.010,102.196 120.756 C 101.428 121.502,100.800 122.252,100.800 122.423 C 100.800 122.594,99.810 123.942,98.600 125.418 C 97.390 126.894,96.400 128.241,96.400 128.411 C 96.400 128.791,93.642 132.923,93.204 133.200 C 93.030 133.310,92.479 134.210,91.980 135.200 C 91.480 136.190,90.651 137.573,90.136 138.273 C 89.621 138.974,89.200 139.673,89.200 139.827 C 89.200 139.981,88.210 142.087,87.000 144.506 C 85.790 146.925,84.800 149.145,84.800 149.440 C 84.800 149.735,84.439 150.618,83.998 151.404 C 83.230 152.771,81.711 156.672,81.406 158.061 C 81.326 158.424,80.999 159.234,80.679 159.861 C 80.358 160.487,79.970 161.630,79.815 162.400 C 79.472 164.109,78.873 166.136,78.159 168.000 C 77.864 168.770,77.521 170.210,77.396 171.200 C 77.272 172.190,76.925 173.900,76.625 175.000 C 74.372 183.273,73.708 212.203,75.618 218.864 C 75.828 219.596,76.000 220.793,76.000 221.524 C 76.000 222.255,76.192 223.211,76.426 223.648 C 76.660 224.086,77.025 225.559,77.237 226.922 C 77.617 229.367,78.563 232.742,79.248 234.095 C 79.442 234.477,79.601 235.107,79.602 235.495 C 79.603 235.883,80.027 237.370,80.545 238.800 C 81.062 240.230,81.615 241.760,81.773 242.200 C 81.931 242.640,82.519 244.080,83.078 245.400 C 83.638 246.720,84.352 248.520,84.664 249.400 C 85.248 251.045,86.844 254.444,87.200 254.800 C 87.624 255.225,88.800 257.689,88.800 258.154 C 88.800 258.422,89.317 259.353,89.950 260.221 C 90.582 261.090,91.237 262.250,91.406 262.800 C 91.574 263.350,92.497 264.801,93.456 266.025 C 94.415 267.249,95.212 268.419,95.227 268.625 C 95.241 268.831,95.874 269.810,96.632 270.800 C 97.390 271.790,98.686 273.597,99.511 274.815 C 103.666 280.953,119.152 296.641,123.175 298.788 C 124.221 299.346,124.280 299.389,126.400 301.107 C 127.170 301.731,128.790 302.849,130.000 303.591 C 131.210 304.334,132.560 305.255,133.000 305.638 C 133.772 306.309,135.435 307.248,141.400 310.382 C 142.940 311.192,144.560 312.047,145.000 312.282 C 147.514 313.630,155.016 316.683,159.000 317.979 C 161.200 318.695,164.080 319.642,165.400 320.084 C 169.060 321.310,179.388 323.420,184.600 324.006 C 193.771 325.038,212.640 324.780,217.974 323.549 C 218.978 323.317,220.700 322.987,221.800 322.816 C 225.596 322.226,230.209 321.149,233.000 320.202 C 234.540 319.680,236.424 319.128,237.187 318.975 C 237.950 318.823,238.850 318.557,239.187 318.385 C 239.524 318.212,240.700 317.760,241.800 317.379 C 246.891 315.618,256.447 311.344,256.733 310.700 C 256.807 310.535,257.171 310.400,257.542 310.400 C 257.914 310.400,259.117 309.815,260.216 309.100 C 261.314 308.385,263.052 307.389,264.078 306.886 C 265.103 306.384,266.000 305.844,266.071 305.686 C 266.248 305.293,268.297 303.885,270.212 302.839 C 271.086 302.362,273.150 300.898,274.800 299.584 C 276.450 298.271,278.790 296.446,280.000 295.529 C 283.094 293.185,293.330 282.777,296.200 279.058 C 297.520 277.348,299.455 274.888,300.500 273.592 C 301.545 272.296,302.400 271.094,302.400 270.921 C 302.400 270.582,305.101 266.512,305.856 265.714 C 306.108 265.446,306.703 264.456,307.177 263.514 C 308.196 261.488,308.753 260.548,309.700 259.251 C 310.085 258.723,310.400 257.956,310.400 257.546 C 310.400 257.136,310.580 256.800,310.800 256.800 C 311.020 256.800,311.200 256.513,311.200 256.162 C 311.200 255.811,311.533 255.046,311.940 254.462 C 312.348 253.878,313.233 252.050,313.907 250.400 C 314.581 248.750,315.778 245.877,316.567 244.015 C 317.355 242.153,318.000 240.344,318.000 239.995 C 318.000 239.646,318.166 239.189,318.369 238.980 C 318.572 238.771,318.918 237.700,319.138 236.600 C 319.358 235.500,319.900 233.520,320.342 232.200 C 321.276 229.412,321.778 227.464,322.353 224.400 C 322.580 223.190,322.966 221.210,323.211 220.000 C 325.024 211.045,325.032 187.192,323.227 179.000 C 322.984 177.900,322.592 176.010,322.354 174.800 C 321.440 170.138,321.091 168.572,320.793 167.800 C 319.802 165.231,319.200 163.284,319.200 162.647 C 319.200 162.248,318.948 161.354,318.640 160.660 C 318.332 159.967,317.984 159.040,317.866 158.600 C 317.466 157.097,316.338 154.202,315.169 151.672 C 314.526 150.282,314.000 148.990,314.000 148.801 C 314.000 148.489,310.851 142.246,307.658 136.225 C 306.965 134.918,306.038 133.466,305.599 132.999 C 305.159 132.531,304.800 132.043,304.800 131.914 C 304.800 131.515,302.051 127.571,300.385 125.582 C 299.513 124.541,298.800 123.500,298.800 123.269 C 298.800 122.701,291.246 114.085,287.738 110.652 C 282.945 105.963,276.291 100.262,273.536 98.486 C 272.950 98.109,270.638 96.540,268.398 95.000 C 266.158 93.460,263.307 91.687,262.062 91.060 C 260.818 90.432,259.710 89.790,259.600 89.632 C 259.329 89.243,255.858 87.600,255.307 87.600 C 255.065 87.600,254.807 87.451,254.733 87.268 C 254.598 86.931,250.297 84.800,249.751 84.800 C 249.587 84.800,248.721 84.455,247.826 84.033 C 244.471 82.452,236.474 79.600,235.393 79.600 C 235.061 79.600,234.477 79.442,234.095 79.248 C 232.938 78.663,229.499 77.649,227.800 77.394 C 226.920 77.261,225.120 76.906,223.800 76.604 C 218.876 75.478,216.838 75.205,210.400 74.809 C 203.013 74.355,195.547 74.362,187.800 74.830 M256.800 166.457 C 256.800 169.708,253.145 177.748,250.845 179.555 C 247.580 182.120,239.762 183.642,239.073 181.846 C 238.007 179.069,240.786 171.101,243.687 168.619 C 247.054 165.736,256.800 164.129,256.800 166.457 M232.943 170.300 C 233.080 171.125,233.196 180.440,233.201 191.000 C 233.212 212.308,233.158 211.660,235.030 212.765 C 236.522 213.645,237.169 215.274,236.396 216.205 C 235.747 216.987,222.051 217.091,221.280 216.320 C 220.222 215.262,220.717 213.698,222.413 212.745 C 224.635 211.496,224.600 211.797,224.600 193.800 C 224.600 175.921,224.622 176.115,222.513 175.000 C 219.216 173.257,220.248 171.633,225.697 169.992 C 231.211 168.331,232.628 168.392,232.943 170.300 M173.707 173.340 C 183.539 176.124,187.659 183.235,187.067 196.400 C 186.557 207.763,182.561 213.516,173.563 215.843 C 170.138 216.728,146.733 217.175,145.767 216.373 C 144.720 215.504,145.255 213.930,147.000 212.750 C 149.135 211.305,149.150 211.183,149.173 195.200 C 149.198 178.229,149.152 177.796,147.191 176.795 C 145.127 175.742,144.463 173.693,145.900 172.809 C 147.089 172.077,170.848 172.531,173.707 173.340 M158.096 194.663 L 158.200 212.200 160.515 212.320 C 174.085 213.026,179.047 207.483,178.275 192.481 C 177.659 180.503,174.837 177.517,163.896 177.263 L 157.992 177.126 158.096 194.663 M208.391 184.826 C 215.341 185.954,218.536 190.096,219.082 198.688 L 219.316 202.376 218.158 202.822 C 217.410 203.110,213.956 203.239,208.400 203.187 C 197.925 203.089,198.800 202.996,198.800 204.210 C 198.800 212.187,207.402 215.853,213.635 210.533 C 217.057 207.612,219.792 209.113,217.599 212.708 C 214.258 218.188,200.778 218.824,194.885 213.780 C 190.511 210.036,188.861 201.025,191.182 193.560 C 193.386 186.472,199.479 183.380,208.391 184.826 M250.000 197.839 C 250.215 212.095,250.181 211.881,252.418 212.808 C 253.728 213.350,254.373 214.918,253.716 215.962 C 253.303 216.617,241.099 217.148,238.900 216.606 C 237.093 216.161,237.667 214.091,240.100 212.277 L 241.600 211.159 241.600 201.953 C 241.600 192.282,241.465 191.454,239.816 191.040 C 238.233 190.642,237.351 189.028,238.100 187.898 C 238.783 186.868,246.553 184.362,248.600 184.512 L 249.800 184.600 250.000 197.839 M202.800 189.081 C 200.599 189.882,198.800 193.476,198.800 197.073 L 198.800 198.800 205.256 198.800 L 211.711 198.800 211.498 196.455 C 210.969 190.618,207.247 187.463,202.800 189.081 " stroke="none" fill="#84b44b" fill-rule="evenodd"></path><path id="path1" d="M247.370 166.423 C 242.148 168.432,237.349 177.353,239.073 181.846 C 239.762 183.642,247.580 182.120,250.845 179.555 C 253.145 177.748,256.800 169.708,256.800 166.457 C 256.800 165.249,250.479 165.226,247.370 166.423 M225.697 169.992 C 220.248 171.633,219.216 173.257,222.513 175.000 C 224.622 176.115,224.600 175.921,224.600 193.800 C 224.600 211.797,224.635 211.496,222.413 212.745 C 220.717 213.698,220.222 215.262,221.280 216.320 C 222.051 217.091,235.747 216.987,236.396 216.205 C 237.169 215.274,236.522 213.645,235.030 212.765 C 233.158 211.660,233.212 212.308,233.201 191.000 C 233.189 168.048,233.261 168.787,231.048 168.838 C 230.141 168.860,227.734 169.379,225.697 169.992 M145.900 172.809 C 144.463 173.693,145.127 175.742,147.191 176.795 C 149.152 177.796,149.198 178.229,149.173 195.200 C 149.150 211.183,149.135 211.305,147.000 212.750 C 145.255 213.930,144.720 215.504,145.767 216.373 C 146.733 217.175,170.138 216.728,173.563 215.843 C 182.561 213.516,186.557 207.763,187.067 196.400 C 187.659 183.235,183.539 176.124,173.707 173.340 C 170.848 172.531,147.089 172.077,145.900 172.809 M172.200 178.600 C 176.264 180.632,177.852 184.260,178.275 192.481 C 179.047 207.483,174.085 213.026,160.515 212.320 L 158.200 212.200 158.096 194.663 L 157.992 177.126 163.896 177.263 C 169.522 177.394,169.913 177.457,172.200 178.600 M200.153 184.965 C 187.302 188.084,186.266 211.323,198.768 216.035 C 205.512 218.576,215.049 216.891,217.599 212.708 C 219.792 209.113,217.057 207.612,213.635 210.533 C 207.402 215.853,198.800 212.187,198.800 204.210 C 198.800 202.996,197.925 203.089,208.400 203.187 C 213.956 203.239,217.410 203.110,218.158 202.822 L 219.316 202.376 219.082 198.688 C 218.375 187.566,211.117 182.304,200.153 184.965 M243.048 185.712 C 238.027 187.198,237.013 188.044,238.158 189.792 C 238.517 190.339,239.263 190.901,239.816 191.040 C 241.465 191.454,241.600 192.282,241.600 201.953 L 241.600 211.159 240.100 212.277 C 237.667 214.091,237.093 216.161,238.900 216.606 C 241.099 217.148,253.303 216.617,253.716 215.962 C 254.373 214.918,253.728 213.350,252.418 212.808 C 250.181 211.881,250.215 212.095,250.000 197.839 L 249.800 184.600 248.600 184.512 C 247.940 184.464,245.442 185.004,243.048 185.712 M208.327 189.612 C 209.977 190.618,211.210 193.279,211.498 196.455 L 211.711 198.800 205.256 198.800 L 198.800 198.800 198.800 197.073 C 198.800 190.597,203.678 186.777,208.327 189.612 " stroke="none" fill="#faf7ed" fill-rule="evenodd"></path></g></svg>