<?xml version="1.0" encoding="UTF-8" standalone="no"?>
<svg
   id="svg"
   version="1.1"
   width="111.66789"
   height="51.694794"
   viewBox="0 0 111.66789 51.694794"
   sodipodi:docname="light_header_deli_logo.svg"
   inkscape:version="1.3 (0e150ed6c4, 2023-07-21)"
   xmlns:inkscape="http://www.inkscape.org/namespaces/inkscape"
   xmlns:sodipodi="http://sodipodi.sourceforge.net/DTD/sodipodi-0.dtd"
   xmlns="http://www.w3.org/2000/svg"
   xmlns:svg="http://www.w3.org/2000/svg">
  <defs
     id="defs1" />
  <sodipodi:namedview
     id="namedview1"
     pagecolor="#ffffff"
     bordercolor="#000000"
     borderopacity="0.25"
     inkscape:showpageshadow="2"
     inkscape:pageopacity="0.0"
     inkscape:pagecheckerboard="0"
     inkscape:deskcolor="#d1d1d1"
     inkscape:zoom="2.3246135"
     inkscape:cx="-11.614834"
     inkscape:cy="65.172123"
     inkscape:window-width="2560"
     inkscape:window-height="1571"
     inkscape:window-x="-9"
     inkscape:window-y="-9"
     inkscape:window-maximized="1"
     inkscape:current-layer="svg" />
  <g
     id="svgg"
     transform="translate(-145.13211,-165.538)">
    <path
       id="path1"
       d="m 247.37,166.423 c -5.222,2.009 -10.021,10.93 -8.297,15.423 0.689,1.796 8.507,0.274 11.772,-2.291 2.3,-1.807 5.955,-9.847 5.955,-13.098 0,-1.208 -6.321,-1.231 -9.43,-0.034 m -21.673,3.569 c -5.449,1.641 -6.481,3.265 -3.184,5.008 2.109,1.115 2.087,0.921 2.087,18.8 0,17.997 0.035,17.696 -2.187,18.945 -1.696,0.953 -2.191,2.517 -1.133,3.575 0.771,0.771 14.467,0.667 15.116,-0.115 0.773,-0.931 0.126,-2.56 -1.366,-3.44 -1.872,-1.105 -1.818,-0.457 -1.829,-21.765 -0.012,-22.952 0.06,-22.213 -2.153,-22.162 -0.907,0.022 -3.314,0.541 -5.351,1.154 m -79.797,2.817 c -1.437,0.884 -0.773,2.933 1.291,3.986 1.961,1.001 2.007,1.434 1.982,18.405 -0.023,15.983 -0.038,16.105 -2.173,17.55 -1.745,1.18 -2.28,2.754 -1.233,3.623 0.966,0.802 24.371,0.355 27.796,-0.53 8.998,-2.327 12.994,-8.08 13.504,-19.443 0.592,-13.165 -3.528,-20.276 -13.36,-23.06 -2.859,-0.809 -26.618,-1.263 -27.807,-0.531 m 26.3,5.791 c 4.064,2.032 5.652,5.66 6.075,13.881 0.772,15.002 -4.19,20.545 -17.76,19.839 l -2.315,-0.12 -0.104,-17.537 -0.104,-17.537 5.904,0.137 c 5.626,0.131 6.017,0.194 8.304,1.337 m 27.953,6.365 c -12.851,3.119 -13.887,26.358 -1.385,31.07 6.744,2.541 16.281,0.856 18.831,-3.327 2.193,-3.595 -0.542,-5.096 -3.964,-2.175 -6.233,5.32 -14.835,1.654 -14.835,-6.323 0,-1.214 -0.875,-1.121 9.6,-1.023 5.556,0.052 9.01,-0.077 9.758,-0.365 l 1.158,-0.446 -0.234,-3.688 c -0.707,-11.122 -7.965,-16.384 -18.929,-13.723 m 42.895,0.747 c -5.021,1.486 -6.035,2.332 -4.89,4.08 0.359,0.547 1.105,1.109 1.658,1.248 1.649,0.414 1.784,1.242 1.784,10.913 v 9.206 l -1.5,1.118 c -2.433,1.814 -3.007,3.884 -1.2,4.329 2.199,0.542 14.403,0.011 14.816,-0.644 0.657,-1.044 0.012,-2.612 -1.298,-3.154 -2.237,-0.927 -2.203,-0.713 -2.418,-14.969 l -0.2,-13.239 -1.2,-0.088 c -0.66,-0.048 -3.158,0.492 -5.552,1.2 m -34.721,3.9 c 1.65,1.006 2.883,3.667 3.171,6.843 l 0.213,2.345 h -6.455 -6.456 v -1.727 c 0,-6.476 4.878,-10.296 9.527,-7.461"
       stroke="none"
       fill="#faf7ed"
       fill-rule="evenodd" />
  </g>
</svg>
